<mxfile host="app.diagrams.net" modified="2023-10-26T10:32:25.772Z" agent="Mozilla/5.0 (Windows NT 10.0; Win64; x64) AppleWebKit/537.36 (KHTML, like Gecko) Chrome/118.0.0.0 Safari/537.36" etag="6XvksSw5dEBVLNKQcvFx" version="22.0.8" type="device">
  <diagram name="Page-1" id="TCMiUr8O6q6nFAbjWR0m">
    <mxGraphModel dx="4086" dy="903" grid="1" gridSize="10" guides="1" tooltips="1" connect="1" arrows="1" fold="1" page="1" pageScale="1" pageWidth="2336" pageHeight="1654" math="0" shadow="0">
      <root>
        <mxCell id="0" />
        <mxCell id="1" parent="0" />
        <mxCell id="_-b4YsgfDRA_AHvhZ7QY-1" value="" style="rounded=0;whiteSpace=wrap;html=1;fillColor=#f8cecc;strokeColor=#b85450;" parent="1" vertex="1">
          <mxGeometry x="-70" y="110" width="370" height="880" as="geometry" />
        </mxCell>
        <mxCell id="_-b4YsgfDRA_AHvhZ7QY-2" value="&lt;h1 style=&quot;&quot;&gt;&lt;font style=&quot;font-size: 35px;&quot;&gt;Set of actions&lt;/font&gt;&lt;/h1&gt;&lt;div style=&quot;font-size: 23px;&quot;&gt;&lt;table style=&quot;font-size: 23px;&quot;&gt;&lt;tbody style=&quot;font-size: 23px;&quot;&gt;&lt;tr style=&quot;font-size: 23px;&quot;&gt;&lt;td style=&quot;font-size: 23px;&quot;&gt;&lt;font style=&quot;font-size: 23px;&quot;&gt;&lt;b&gt;stop_video&lt;/b&gt;&lt;/font&gt;&lt;/td&gt;&lt;/tr&gt;&lt;tr style=&quot;font-size: 23px;&quot;&gt;&lt;td style=&quot;font-size: 23px;&quot;&gt;&lt;font style=&quot;font-size: 23px;&quot;&gt;&lt;b&gt;seek_video&lt;/b&gt;&lt;/font&gt;&lt;/td&gt;&lt;/tr&gt;&lt;tr style=&quot;font-size: 23px;&quot;&gt;&lt;td style=&quot;font-size: 23px;&quot;&gt;&lt;font style=&quot;font-size: 23px;&quot;&gt;&lt;b&gt;problem_save&lt;/b&gt;&lt;/font&gt;&lt;/td&gt;&lt;/tr&gt;&lt;tr style=&quot;font-size: 23px;&quot;&gt;&lt;td style=&quot;font-size: 23px;&quot;&gt;&lt;font style=&quot;font-size: 23px;&quot;&gt;&lt;b&gt;problem_get&lt;/b&gt;&lt;/font&gt;&lt;/td&gt;&lt;/tr&gt;&lt;tr style=&quot;font-size: 23px;&quot;&gt;&lt;td style=&quot;font-size: 23px;&quot;&gt;&lt;font style=&quot;font-size: 23px;&quot;&gt;&lt;b&gt;problem_check_incorrect&lt;/b&gt;&lt;/font&gt;&lt;/td&gt;&lt;/tr&gt;&lt;tr style=&quot;font-size: 23px;&quot;&gt;&lt;td style=&quot;font-size: 23px;&quot;&gt;&lt;font style=&quot;font-size: 23px;&quot;&gt;&lt;b&gt;problem_check_correct&lt;/b&gt;&lt;/font&gt;&lt;/td&gt;&lt;/tr&gt;&lt;tr style=&quot;font-size: 23px;&quot;&gt;&lt;td style=&quot;font-size: 23px;&quot;&gt;&lt;font style=&quot;font-size: 23px;&quot;&gt;&lt;b&gt;problem_check&lt;/b&gt;&lt;/font&gt;&lt;/td&gt;&lt;/tr&gt;&lt;tr style=&quot;font-size: 23px;&quot;&gt;&lt;td style=&quot;font-size: 23px;&quot;&gt;&lt;font style=&quot;font-size: 23px;&quot;&gt;&lt;b&gt;play_video&lt;/b&gt;&lt;/font&gt;&lt;/td&gt;&lt;/tr&gt;&lt;tr style=&quot;font-size: 23px;&quot;&gt;&lt;td style=&quot;font-size: 23px;&quot;&gt;&lt;font style=&quot;font-size: 23px;&quot;&gt;&lt;b&gt;pause_video&lt;/b&gt;&lt;/font&gt;&lt;/td&gt;&lt;/tr&gt;&lt;tr style=&quot;font-size: 23px;&quot;&gt;&lt;td style=&quot;font-size: 23px;&quot;&gt;&lt;font style=&quot;font-size: 23px;&quot;&gt;&lt;b&gt;load_video&lt;/b&gt;&lt;/font&gt;&lt;/td&gt;&lt;/tr&gt;&lt;tr style=&quot;font-size: 23px;&quot;&gt;&lt;td style=&quot;font-size: 23px;&quot;&gt;&lt;font style=&quot;font-size: 23px;&quot;&gt;&lt;b&gt;delete_comment&lt;/b&gt;&lt;/font&gt;&lt;/td&gt;&lt;/tr&gt;&lt;tr style=&quot;font-size: 23px;&quot;&gt;&lt;td style=&quot;font-size: 23px;&quot;&gt;&lt;font style=&quot;font-size: 23px;&quot;&gt;&lt;b&gt;create_thread&lt;/b&gt;&lt;/font&gt;&lt;/td&gt;&lt;/tr&gt;&lt;tr style=&quot;font-size: 23px;&quot;&gt;&lt;td style=&quot;font-size: 23px;&quot;&gt;&lt;font style=&quot;font-size: 23px;&quot;&gt;&lt;b&gt;create_comment&lt;/b&gt;&lt;/font&gt;&lt;/td&gt;&lt;/tr&gt;&lt;tr style=&quot;font-size: 23px;&quot;&gt;&lt;td style=&quot;font-size: 23px;&quot;&gt;&lt;font style=&quot;font-size: 23px;&quot;&gt;&lt;b&gt;close_courseware&lt;/b&gt;&lt;/font&gt;&lt;/td&gt;&lt;/tr&gt;&lt;tr style=&quot;font-size: 23px;&quot;&gt;&lt;td style=&quot;font-size: 23px;&quot;&gt;&lt;font style=&quot;font-size: 23px;&quot;&gt;&lt;b&gt;click_progress&lt;/b&gt;&lt;/font&gt;&lt;/td&gt;&lt;/tr&gt;&lt;tr style=&quot;font-size: 23px;&quot;&gt;&lt;td style=&quot;font-size: 23px;&quot;&gt;&lt;font style=&quot;font-size: 23px;&quot;&gt;&lt;b&gt;click_info&lt;/b&gt;&lt;/font&gt;&lt;/td&gt;&lt;/tr&gt;&lt;tr style=&quot;font-size: 23px;&quot;&gt;&lt;td style=&quot;font-size: 23px;&quot;&gt;&lt;font style=&quot;font-size: 23px;&quot;&gt;&lt;b&gt;click_forum&lt;/b&gt;&lt;/font&gt;&lt;/td&gt;&lt;/tr&gt;&lt;tr style=&quot;font-size: 23px;&quot;&gt;&lt;td style=&quot;font-size: 23px;&quot;&gt;&lt;font style=&quot;font-size: 23px;&quot;&gt;&lt;b&gt;click_courseware&lt;/b&gt;&lt;/font&gt;&lt;/td&gt;&lt;/tr&gt;&lt;tr style=&quot;font-size: 23px;&quot;&gt;&lt;td style=&quot;font-size: 23px;&quot;&gt;&lt;font style=&quot;font-size: 23px;&quot;&gt;&lt;b&gt;click_about&lt;/b&gt;&lt;/font&gt;&lt;/td&gt;&lt;/tr&gt;&lt;/tbody&gt;&lt;/table&gt;&lt;/div&gt;" style="text;html=1;strokeColor=none;fillColor=none;spacing=5;spacingTop=-20;whiteSpace=wrap;overflow=hidden;rounded=0;fontSize=23;" parent="1" vertex="1">
          <mxGeometry x="-40" y="150" width="400" height="840" as="geometry" />
        </mxCell>
        <mxCell id="_-b4YsgfDRA_AHvhZ7QY-3" value="" style="rounded=0;whiteSpace=wrap;html=1;fillColor=#d5e8d4;strokeColor=#82b366;" parent="1" vertex="1">
          <mxGeometry x="1090" y="110" width="240" height="100" as="geometry" />
        </mxCell>
        <mxCell id="_-b4YsgfDRA_AHvhZ7QY-4" value="&lt;h1&gt;No of objects&lt;/h1&gt;&lt;div&gt;&lt;font style=&quot;font-size: 17px;&quot;&gt;446&lt;/font&gt;&lt;/div&gt;" style="text;html=1;strokeColor=none;fillColor=none;spacing=5;spacingTop=-20;whiteSpace=wrap;overflow=hidden;rounded=0;" parent="1" vertex="1">
          <mxGeometry x="1110" y="130" width="190" height="120" as="geometry" />
        </mxCell>
        <mxCell id="_-b4YsgfDRA_AHvhZ7QY-5" value="" style="rounded=0;whiteSpace=wrap;html=1;fillColor=#d5e8d4;strokeColor=#82b366;" parent="1" vertex="1">
          <mxGeometry x="1090" y="270" width="230" height="80" as="geometry" />
        </mxCell>
        <mxCell id="_-b4YsgfDRA_AHvhZ7QY-6" value="&lt;h1&gt;No of courses&lt;/h1&gt;&lt;div&gt;&lt;span style=&quot;font-size: 20px;&quot;&gt;6409&lt;/span&gt;&lt;/div&gt;" style="text;html=1;strokeColor=none;fillColor=none;spacing=5;spacingTop=-20;whiteSpace=wrap;overflow=hidden;rounded=0;" parent="1" vertex="1">
          <mxGeometry x="1100" y="270" width="190" height="120" as="geometry" />
        </mxCell>
        <mxCell id="_-b4YsgfDRA_AHvhZ7QY-7" value="" style="rounded=0;whiteSpace=wrap;html=1;fillColor=#d5e8d4;strokeColor=#82b366;" parent="1" vertex="1">
          <mxGeometry x="1090" y="410" width="230" height="80" as="geometry" />
        </mxCell>
        <mxCell id="_-b4YsgfDRA_AHvhZ7QY-8" value="&lt;h1 style=&quot;font-size: 21px;&quot;&gt;No of sessions&lt;/h1&gt;&lt;div style=&quot;font-size: 21px;&quot;&gt;&lt;font style=&quot;font-size: 21px;&quot;&gt;2196&lt;/font&gt;&lt;/div&gt;" style="text;html=1;strokeColor=none;fillColor=none;spacing=5;spacingTop=-20;whiteSpace=wrap;overflow=hidden;rounded=0;" parent="1" vertex="1">
          <mxGeometry x="1100" y="410" width="190" height="120" as="geometry" />
        </mxCell>
        <mxCell id="_-b4YsgfDRA_AHvhZ7QY-9" value="" style="rounded=0;whiteSpace=wrap;html=1;fillColor=#d5e8d4;strokeColor=#82b366;" parent="1" vertex="1">
          <mxGeometry x="1090" y="520" width="240" height="100" as="geometry" />
        </mxCell>
        <mxCell id="_-b4YsgfDRA_AHvhZ7QY-10" value="&lt;h1&gt;No of students&lt;/h1&gt;&lt;div&gt;&lt;font style=&quot;font-size: 18px;&quot;&gt;1100&lt;/font&gt;&lt;/div&gt;" style="text;html=1;strokeColor=none;fillColor=none;spacing=5;spacingTop=-20;whiteSpace=wrap;overflow=hidden;rounded=0;" parent="1" vertex="1">
          <mxGeometry x="1110" y="520" width="190" height="120" as="geometry" />
        </mxCell>
        <mxCell id="_-b4YsgfDRA_AHvhZ7QY-11" value="" style="rounded=0;whiteSpace=wrap;html=1;fillColor=#e1d5e7;strokeColor=#9673a6;" parent="1" vertex="1">
          <mxGeometry x="640" y="110" width="230" height="530" as="geometry" />
        </mxCell>
        <mxCell id="_-b4YsgfDRA_AHvhZ7QY-13" value="&lt;b style=&quot;font-size: 22px;&quot;&gt;&lt;i&gt;TRAINING DATA&lt;br&gt;&lt;br&gt;Column names:&lt;/i&gt;&lt;/b&gt;&lt;table style=&quot;border-style: none; border-collapse: collapse; font-size: 24px;&quot;&gt;&lt;tbody&gt;&lt;tr&gt;&lt;td style=&quot;border-left-style: none; border-top-style: none; border-right-style: none; border-bottom-style: none; padding-left: 15px;&quot;&gt;&lt;font style=&quot;font-size: 24px;&quot;&gt;&lt;b style=&quot;&quot;&gt;enroll_id&lt;/b&gt;&lt;/font&gt;&lt;/td&gt;&lt;td style=&quot;border-left-style: none; border-top-style: none; border-right-style: none; border-bottom-style: none; padding-left: 15px;&quot;&gt;&lt;font style=&quot;font-size: 24px;&quot; color=&quot;#717171&quot;&gt;&lt;b&gt;int&lt;/b&gt;&lt;/font&gt;&lt;/td&gt;&lt;/tr&gt;&lt;tr&gt;&lt;td style=&quot;border-left-style: none; border-top-style: none; border-right-style: none; border-bottom-style: none; padding-left: 15px;&quot;&gt;&lt;font style=&quot;font-size: 24px;&quot;&gt;&lt;b&gt;username&lt;/b&gt;&lt;/font&gt;&lt;/td&gt;&lt;td style=&quot;border-left-style: none; border-top-style: none; border-right-style: none; border-bottom-style: none; padding-left: 15px;&quot;&gt;&lt;font style=&quot;font-size: 24px;&quot; color=&quot;#717171&quot;&gt;&lt;b&gt;int&lt;/b&gt;&lt;/font&gt;&lt;/td&gt;&lt;/tr&gt;&lt;tr&gt;&lt;td style=&quot;border-left-style: none; border-top-style: none; border-right-style: none; border-bottom-style: none; padding-left: 15px;&quot;&gt;&lt;font style=&quot;font-size: 24px;&quot;&gt;&lt;b&gt;course_id&lt;/b&gt;&lt;/font&gt;&lt;/td&gt;&lt;td style=&quot;border-left-style: none; border-top-style: none; border-right-style: none; border-bottom-style: none; padding-left: 15px;&quot;&gt;&lt;font style=&quot;font-size: 24px;&quot; color=&quot;#717171&quot;&gt;&lt;b&gt;text&lt;/b&gt;&lt;/font&gt;&lt;/td&gt;&lt;/tr&gt;&lt;tr&gt;&lt;td style=&quot;border-left-style: none; border-top-style: none; border-right-style: none; border-bottom-style: none; padding-left: 15px;&quot;&gt;&lt;font style=&quot;font-size: 24px;&quot;&gt;&lt;b&gt;session_id&lt;/b&gt;&lt;/font&gt;&lt;/td&gt;&lt;td style=&quot;border-left-style: none; border-top-style: none; border-right-style: none; border-bottom-style: none; padding-left: 15px;&quot;&gt;&lt;font style=&quot;font-size: 24px;&quot; color=&quot;#717171&quot;&gt;&lt;b&gt;text&lt;/b&gt;&lt;/font&gt;&lt;/td&gt;&lt;/tr&gt;&lt;tr&gt;&lt;td style=&quot;border-left-style: none; border-top-style: none; border-right-style: none; border-bottom-style: none; padding-left: 15px;&quot;&gt;&lt;font style=&quot;font-size: 24px;&quot;&gt;&lt;b&gt;action&lt;/b&gt;&lt;/font&gt;&lt;/td&gt;&lt;td style=&quot;border-left-style: none; border-top-style: none; border-right-style: none; border-bottom-style: none; padding-left: 15px;&quot;&gt;&lt;font style=&quot;font-size: 24px;&quot; color=&quot;#717171&quot;&gt;&lt;b&gt;text&lt;/b&gt;&lt;/font&gt;&lt;/td&gt;&lt;/tr&gt;&lt;tr&gt;&lt;td style=&quot;border-left-style: none; border-top-style: none; border-right-style: none; border-bottom-style: none; padding-left: 15px;&quot;&gt;&lt;font style=&quot;font-size: 24px;&quot;&gt;&lt;b&gt;object&lt;/b&gt;&lt;/font&gt;&lt;/td&gt;&lt;td style=&quot;border-left-style: none; border-top-style: none; border-right-style: none; border-bottom-style: none; padding-left: 15px;&quot;&gt;&lt;font style=&quot;font-size: 24px;&quot; color=&quot;#717171&quot;&gt;&lt;b&gt;text&lt;/b&gt;&lt;/font&gt;&lt;/td&gt;&lt;/tr&gt;&lt;tr&gt;&lt;td style=&quot;border-left-style: none; border-top-style: none; border-right-style: none; border-bottom-style: none; padding-left: 15px;&quot;&gt;&lt;font style=&quot;font-size: 24px;&quot;&gt;&lt;b&gt;time&lt;/b&gt;&lt;/font&gt;&lt;/td&gt;&lt;td style=&quot;border-left-style: none; border-top-style: none; border-right-style: none; border-bottom-style: none; padding-left: 15px;&quot;&gt;&lt;font style=&quot;font-size: 24px;&quot; color=&quot;#717171&quot;&gt;&lt;b&gt;text&lt;/b&gt;&lt;/font&gt;&lt;/td&gt;&lt;/tr&gt;&lt;tr&gt;&lt;td style=&quot;border-left-style: none; border-top-style: none; border-right-style: none; border-bottom-style: none; padding-left: 15px;&quot;&gt;&lt;font style=&quot;font-size: 24px;&quot;&gt;&lt;b&gt;truth&lt;/b&gt;&lt;/font&gt;&lt;/td&gt;&lt;td style=&quot;border-left-style: none; border-top-style: none; border-right-style: none; border-bottom-style: none; padding-left: 15px;&quot;&gt;&lt;font style=&quot;font-size: 24px;&quot; color=&quot;#717171&quot;&gt;&lt;b&gt;int&lt;/b&gt;&lt;/font&gt;&lt;/td&gt;&lt;/tr&gt;&lt;/tbody&gt;&lt;/table&gt;" style="text;html=1;strokeColor=none;fillColor=none;align=center;verticalAlign=middle;whiteSpace=wrap;rounded=0;" parent="1" vertex="1">
          <mxGeometry x="630" y="70" width="230" height="625" as="geometry" />
        </mxCell>
        <mxCell id="_-b4YsgfDRA_AHvhZ7QY-22" value="" style="rounded=0;whiteSpace=wrap;html=1;fillColor=#f8cecc;strokeColor=#b85450;" parent="1" vertex="1">
          <mxGeometry x="335" y="860" width="240" height="560" as="geometry" />
        </mxCell>
        <mxCell id="_-b4YsgfDRA_AHvhZ7QY-23" value="&lt;table style=&quot;font-size: 19px;&quot;&gt;&lt;tbody style=&quot;font-size: 19px;&quot;&gt;&lt;tr style=&quot;font-size: 19px;&quot;&gt;&lt;td style=&quot;font-size: 19px;&quot;&gt;philosophy&lt;/td&gt;&lt;/tr&gt;&lt;tr style=&quot;font-size: 19px;&quot;&gt;&lt;td style=&quot;font-size: 19px;&quot;&gt;engineering&lt;/td&gt;&lt;/tr&gt;&lt;tr style=&quot;font-size: 19px;&quot;&gt;&lt;td style=&quot;font-size: 19px;&quot;&gt;history&lt;/td&gt;&lt;/tr&gt;&lt;tr style=&quot;font-size: 19px;&quot;&gt;&lt;td style=&quot;font-size: 19px;&quot;&gt;social science&lt;/td&gt;&lt;/tr&gt;&lt;tr style=&quot;font-size: 19px;&quot;&gt;&lt;td style=&quot;font-size: 19px;&quot;&gt;economics&lt;/td&gt;&lt;/tr&gt;&lt;tr style=&quot;font-size: 19px;&quot;&gt;&lt;td style=&quot;font-size: 19px;&quot;&gt;literature&lt;/td&gt;&lt;/tr&gt;&lt;tr style=&quot;font-size: 19px;&quot;&gt;&lt;td style=&quot;font-size: 19px;&quot;&gt;business&lt;/td&gt;&lt;/tr&gt;&lt;tr style=&quot;font-size: 19px;&quot;&gt;&lt;td style=&quot;font-size: 19px;&quot;&gt;biology&lt;/td&gt;&lt;/tr&gt;&lt;tr style=&quot;font-size: 19px;&quot;&gt;&lt;td style=&quot;font-size: 19px;&quot;&gt;physics&lt;/td&gt;&lt;/tr&gt;&lt;tr style=&quot;font-size: 19px;&quot;&gt;&lt;td style=&quot;font-size: 19px;&quot;&gt;computer&lt;/td&gt;&lt;/tr&gt;&lt;tr style=&quot;font-size: 19px;&quot;&gt;&lt;td style=&quot;font-size: 19px;&quot;&gt;foreign language&lt;/td&gt;&lt;/tr&gt;&lt;tr style=&quot;font-size: 19px;&quot;&gt;&lt;td style=&quot;font-size: 19px;&quot;&gt;medicine&lt;/td&gt;&lt;/tr&gt;&lt;tr style=&quot;font-size: 19px;&quot;&gt;&lt;td style=&quot;font-size: 19px;&quot;&gt;math&lt;/td&gt;&lt;/tr&gt;&lt;tr style=&quot;font-size: 19px;&quot;&gt;&lt;td style=&quot;font-size: 19px;&quot;&gt;art&lt;/td&gt;&lt;/tr&gt;&lt;tr style=&quot;font-size: 19px;&quot;&gt;&lt;td style=&quot;font-size: 19px;&quot;&gt;chemistry&lt;/td&gt;&lt;/tr&gt;&lt;tr style=&quot;font-size: 19px;&quot;&gt;&lt;td style=&quot;font-size: 19px;&quot;&gt;education&lt;/td&gt;&lt;/tr&gt;&lt;tr style=&quot;font-size: 19px;&quot;&gt;&lt;td style=&quot;font-size: 19px;&quot;&gt;electrical&lt;/td&gt;&lt;/tr&gt;&lt;tr style=&quot;font-size: 19px;&quot;&gt;&lt;td style=&quot;font-size: 19px;&quot;&gt;environment&lt;/td&gt;&lt;/tr&gt;&lt;/tbody&gt;&lt;/table&gt;" style="text;html=1;strokeColor=none;fillColor=none;align=center;verticalAlign=middle;whiteSpace=wrap;rounded=0;fontSize=19;fontStyle=1" parent="1" vertex="1">
          <mxGeometry x="260" y="1110" width="380" height="120" as="geometry" />
        </mxCell>
        <mxCell id="_-b4YsgfDRA_AHvhZ7QY-24" value="Course types" style="text;html=1;strokeColor=none;fillColor=none;align=center;verticalAlign=middle;whiteSpace=wrap;rounded=0;fontSize=33;fontStyle=1" parent="1" vertex="1">
          <mxGeometry x="253" y="865" width="427" height="80" as="geometry" />
        </mxCell>
        <mxCell id="_-b4YsgfDRA_AHvhZ7QY-25" value="" style="rounded=0;whiteSpace=wrap;html=1;fillColor=#e1d5e7;strokeColor=#9673a6;" parent="1" vertex="1">
          <mxGeometry x="816" y="960" width="260" height="470" as="geometry" />
        </mxCell>
        <mxCell id="_-b4YsgfDRA_AHvhZ7QY-26" value="&lt;b&gt;Course_info&lt;/b&gt;&lt;br&gt;&lt;br&gt;&lt;b&gt;Columns:&lt;/b&gt;&lt;table style=&quot;border-left-style: none; border-top-style: none; border-right-style: none; border-bottom-style: none; border-collapse: collapse;&quot;&gt;&lt;tbody&gt;&lt;tr&gt;&lt;td style=&quot;border-left-style: none; border-top-style: none; border-right-style: none; border-bottom-style: none; padding-left: 15px;&quot;&gt;&lt;b&gt;id&lt;/b&gt;&lt;/td&gt;&lt;td style=&quot;border-left-style: none; border-top-style: none; border-right-style: none; border-bottom-style: none; padding-left: 15px;&quot;&gt;&lt;font color=&quot;#717171&quot;&gt;int&lt;/font&gt;&lt;/td&gt;&lt;/tr&gt;&lt;tr&gt;&lt;td style=&quot;border-left-style: none; border-top-style: none; border-right-style: none; border-bottom-style: none; padding-left: 15px;&quot;&gt;&lt;b&gt;course_id&lt;/b&gt;&lt;/td&gt;&lt;td style=&quot;border-left-style: none; border-top-style: none; border-right-style: none; border-bottom-style: none; padding-left: 15px;&quot;&gt;&lt;font color=&quot;#717171&quot;&gt;text&lt;/font&gt;&lt;/td&gt;&lt;/tr&gt;&lt;tr&gt;&lt;td style=&quot;border-left-style: none; border-top-style: none; border-right-style: none; border-bottom-style: none; padding-left: 15px;&quot;&gt;&lt;b&gt;start&lt;/b&gt;&lt;/td&gt;&lt;td style=&quot;border-left-style: none; border-top-style: none; border-right-style: none; border-bottom-style: none; padding-left: 15px;&quot;&gt;&lt;font color=&quot;#717171&quot;&gt;text&lt;/font&gt;&lt;/td&gt;&lt;/tr&gt;&lt;tr&gt;&lt;td style=&quot;border-left-style: none; border-top-style: none; border-right-style: none; border-bottom-style: none; padding-left: 15px;&quot;&gt;&lt;b&gt;end&lt;/b&gt;&lt;/td&gt;&lt;td style=&quot;border-left-style: none; border-top-style: none; border-right-style: none; border-bottom-style: none; padding-left: 15px;&quot;&gt;&lt;font color=&quot;#717171&quot;&gt;text&lt;/font&gt;&lt;/td&gt;&lt;/tr&gt;&lt;tr&gt;&lt;td style=&quot;border-left-style: none; border-top-style: none; border-right-style: none; border-bottom-style: none; padding-left: 15px;&quot;&gt;&lt;b&gt;course_type&lt;/b&gt;&lt;/td&gt;&lt;td style=&quot;border-left-style: none; border-top-style: none; border-right-style: none; border-bottom-style: none; padding-left: 15px;&quot;&gt;&lt;font color=&quot;#717171&quot;&gt;int&lt;/font&gt;&lt;/td&gt;&lt;/tr&gt;&lt;tr&gt;&lt;td style=&quot;border-left-style: none; border-top-style: none; border-right-style: none; border-bottom-style: none; padding-left: 15px;&quot;&gt;&lt;b&gt;category&lt;/b&gt;&lt;/td&gt;&lt;td style=&quot;border-left-style: none; border-top-style: none; border-right-style: none; border-bottom-style: none; padding-left: 15px;&quot;&gt;&lt;font color=&quot;#717171&quot;&gt;text&lt;/font&gt;&lt;/td&gt;&lt;/tr&gt;&lt;/tbody&gt;&lt;/table&gt;" style="text;html=1;strokeColor=none;fillColor=none;align=center;verticalAlign=middle;whiteSpace=wrap;rounded=0;fontSize=30;" parent="1" vertex="1">
          <mxGeometry x="790" y="1095" width="290" height="150" as="geometry" />
        </mxCell>
        <mxCell id="_-b4YsgfDRA_AHvhZ7QY-32" value="" style="endArrow=classic;html=1;rounded=0;fontStyle=1" parent="1" edge="1">
          <mxGeometry width="50" height="50" relative="1" as="geometry">
            <mxPoint x="820" y="1290" as="sourcePoint" />
            <mxPoint x="570" y="1290" as="targetPoint" />
          </mxGeometry>
        </mxCell>
        <mxCell id="_-b4YsgfDRA_AHvhZ7QY-35" value="" style="endArrow=classic;html=1;rounded=0;" parent="1" edge="1">
          <mxGeometry width="50" height="50" relative="1" as="geometry">
            <mxPoint x="640" y="400" as="sourcePoint" />
            <mxPoint x="310" y="400" as="targetPoint" />
          </mxGeometry>
        </mxCell>
        <mxCell id="_-b4YsgfDRA_AHvhZ7QY-36" value="" style="endArrow=classic;html=1;rounded=0;entryX=0;entryY=1;entryDx=0;entryDy=0;" parent="1" target="_-b4YsgfDRA_AHvhZ7QY-3" edge="1">
          <mxGeometry width="50" height="50" relative="1" as="geometry">
            <mxPoint x="870" y="350" as="sourcePoint" />
            <mxPoint x="920" y="300" as="targetPoint" />
          </mxGeometry>
        </mxCell>
        <mxCell id="_-b4YsgfDRA_AHvhZ7QY-37" value="" style="endArrow=classic;html=1;rounded=0;" parent="1" edge="1">
          <mxGeometry width="50" height="50" relative="1" as="geometry">
            <mxPoint x="870" y="440" as="sourcePoint" />
            <mxPoint x="1060" y="570" as="targetPoint" />
          </mxGeometry>
        </mxCell>
        <mxCell id="_-b4YsgfDRA_AHvhZ7QY-38" value="" style="endArrow=classic;html=1;rounded=0;" parent="1" edge="1">
          <mxGeometry width="50" height="50" relative="1" as="geometry">
            <mxPoint x="870" y="400" as="sourcePoint" />
            <mxPoint x="1070" y="440" as="targetPoint" />
          </mxGeometry>
        </mxCell>
        <mxCell id="_-b4YsgfDRA_AHvhZ7QY-39" value="" style="endArrow=classic;html=1;rounded=0;entryX=0;entryY=0.75;entryDx=0;entryDy=0;" parent="1" target="_-b4YsgfDRA_AHvhZ7QY-5" edge="1">
          <mxGeometry width="50" height="50" relative="1" as="geometry">
            <mxPoint x="870" y="390" as="sourcePoint" />
            <mxPoint x="920" y="340" as="targetPoint" />
          </mxGeometry>
        </mxCell>
        <mxCell id="EcIYvN07CErEai14c9Gb-8" value="" style="rounded=0;whiteSpace=wrap;html=1;labelBackgroundColor=#b04f4f;fillColor=#e1d5e7;strokeColor=#9673a6;" parent="1" vertex="1">
          <mxGeometry x="2045" y="750" width="260" height="470" as="geometry" />
        </mxCell>
        <mxCell id="EcIYvN07CErEai14c9Gb-10" value="&lt;b&gt;Student_info&lt;/b&gt;&lt;br&gt;&lt;br&gt;&lt;b&gt;Columns:&lt;/b&gt;&lt;table style=&quot;border-left-style: none; border-top-style: none; border-right-style: none; border-bottom-style: none; border-collapse: collapse;&quot;&gt;&lt;tbody&gt;&lt;tr&gt;&lt;td style=&quot;border-left-style: none; border-top-style: none; border-right-style: none; border-bottom-style: none; padding-left: 15px;&quot;&gt;&lt;b&gt;user_id&lt;/b&gt;&lt;/td&gt;&lt;td style=&quot;border-left-style: none; border-top-style: none; border-right-style: none; border-bottom-style: none; padding-left: 15px;&quot;&gt;&lt;font color=&quot;#717171&quot;&gt;int&lt;/font&gt;&lt;/td&gt;&lt;/tr&gt;&lt;tr&gt;&lt;td style=&quot;border-left-style: none; border-top-style: none; border-right-style: none; border-bottom-style: none; padding-left: 15px;&quot;&gt;&lt;b&gt;gender&lt;/b&gt;&lt;/td&gt;&lt;td style=&quot;border-left-style: none; border-top-style: none; border-right-style: none; border-bottom-style: none; padding-left: 15px;&quot;&gt;&lt;font color=&quot;#717171&quot;&gt;text&lt;/font&gt;&lt;/td&gt;&lt;/tr&gt;&lt;tr&gt;&lt;td style=&quot;border-left-style: none; border-top-style: none; border-right-style: none; border-bottom-style: none; padding-left: 15px;&quot;&gt;&lt;b&gt;education&lt;/b&gt;&lt;/td&gt;&lt;td style=&quot;border-left-style: none; border-top-style: none; border-right-style: none; border-bottom-style: none; padding-left: 15px;&quot;&gt;&lt;font color=&quot;#717171&quot;&gt;text&lt;/font&gt;&lt;/td&gt;&lt;/tr&gt;&lt;tr&gt;&lt;td style=&quot;border-left-style: none; border-top-style: none; border-right-style: none; border-bottom-style: none; padding-left: 15px;&quot;&gt;&lt;b&gt;birth&lt;/b&gt;&lt;/td&gt;&lt;td style=&quot;border-left-style: none; border-top-style: none; border-right-style: none; border-bottom-style: none; padding-left: 15px;&quot;&gt;&lt;font color=&quot;#717171&quot;&gt;text&lt;/font&gt;&lt;/td&gt;&lt;/tr&gt;&lt;tr&gt;&lt;td style=&quot;border-left-style: none; border-top-style: none; border-right-style: none; border-bottom-style: none; padding-left: 15px;&quot;&gt;&lt;br&gt;&lt;/td&gt;&lt;td style=&quot;border-left-style: none; border-top-style: none; border-right-style: none; border-bottom-style: none; padding-left: 15px;&quot;&gt;&lt;br&gt;&lt;/td&gt;&lt;/tr&gt;&lt;tr&gt;&lt;td style=&quot;border-left-style: none; border-top-style: none; border-right-style: none; border-bottom-style: none; padding-left: 15px;&quot;&gt;&lt;br&gt;&lt;/td&gt;&lt;td style=&quot;border-left-style: none; border-top-style: none; border-right-style: none; border-bottom-style: none; padding-left: 15px;&quot;&gt;&lt;br&gt;&lt;/td&gt;&lt;/tr&gt;&lt;/tbody&gt;&lt;/table&gt;" style="text;html=1;strokeColor=none;fillColor=none;align=center;verticalAlign=middle;whiteSpace=wrap;rounded=0;fontSize=30;" parent="1" vertex="1">
          <mxGeometry x="2030" y="960" width="290" height="150" as="geometry" />
        </mxCell>
        <mxCell id="EcIYvN07CErEai14c9Gb-25" value="" style="group" parent="1" vertex="1" connectable="0">
          <mxGeometry x="1540" y="775" width="260" height="615" as="geometry" />
        </mxCell>
        <mxCell id="EcIYvN07CErEai14c9Gb-14" value="" style="rounded=0;whiteSpace=wrap;html=1;fillColor=#f8cecc;strokeColor=#b85450;" parent="EcIYvN07CErEai14c9Gb-25" vertex="1">
          <mxGeometry y="15" width="260" height="470" as="geometry" />
        </mxCell>
        <mxCell id="EcIYvN07CErEai14c9Gb-13" value="&lt;h1 style=&quot;font-size: 26px;&quot;&gt;&lt;table style=&quot;font-size: 26px;&quot;&gt;&lt;tbody style=&quot;font-size: 26px;&quot;&gt;&lt;tr style=&quot;font-size: 26px;&quot;&gt;&lt;td style=&quot;font-size: 26px;&quot;&gt;High&lt;/td&gt;&lt;/tr&gt;&lt;tr style=&quot;font-size: 26px;&quot;&gt;&lt;td style=&quot;font-size: 26px;&quot;&gt;Bachelor&#39;s&lt;/td&gt;&lt;/tr&gt;&lt;tr style=&quot;font-size: 26px;&quot;&gt;&lt;td style=&quot;font-size: 26px;&quot;&gt;Associate&lt;/td&gt;&lt;/tr&gt;&lt;tr style=&quot;font-size: 26px;&quot;&gt;&lt;td style=&quot;font-size: 26px;&quot;&gt;&lt;/td&gt;&lt;/tr&gt;&lt;tr style=&quot;font-size: 26px;&quot;&gt;&lt;td style=&quot;font-size: 26px;&quot;&gt;Master&#39;s&lt;/td&gt;&lt;/tr&gt;&lt;tr style=&quot;font-size: 26px;&quot;&gt;&lt;td style=&quot;font-size: 26px;&quot;&gt;Doctorate&lt;/td&gt;&lt;/tr&gt;&lt;tr style=&quot;font-size: 26px;&quot;&gt;&lt;td style=&quot;font-size: 26px;&quot;&gt;Middle&lt;/td&gt;&lt;/tr&gt;&lt;tr style=&quot;font-size: 26px;&quot;&gt;&lt;td style=&quot;font-size: 26px;&quot;&gt;Primary&lt;/td&gt;&lt;/tr&gt;&lt;/tbody&gt;&lt;/table&gt;&lt;/h1&gt;" style="text;html=1;strokeColor=none;fillColor=none;spacing=5;spacingTop=-20;whiteSpace=wrap;overflow=hidden;rounded=0;fontSize=26;" parent="EcIYvN07CErEai14c9Gb-25" vertex="1">
          <mxGeometry x="30" y="165" width="220" height="440" as="geometry" />
        </mxCell>
        <mxCell id="EcIYvN07CErEai14c9Gb-15" value="Education types" style="text;html=1;strokeColor=none;fillColor=none;align=center;verticalAlign=middle;whiteSpace=wrap;rounded=0;fontSize=42;fontStyle=1" parent="EcIYvN07CErEai14c9Gb-25" vertex="1">
          <mxGeometry x="100" y="75" width="60" height="30" as="geometry" />
        </mxCell>
        <mxCell id="EcIYvN07CErEai14c9Gb-27" value="" style="group;fillColor=#d5e8d4;strokeColor=#82b366;" parent="1" vertex="1" connectable="0">
          <mxGeometry x="2055" y="460" width="240" height="140" as="geometry" />
        </mxCell>
        <mxCell id="EcIYvN07CErEai14c9Gb-28" value="" style="group" parent="EcIYvN07CErEai14c9Gb-27" vertex="1" connectable="0">
          <mxGeometry width="240" height="130" as="geometry" />
        </mxCell>
        <mxCell id="EcIYvN07CErEai14c9Gb-12" value="" style="rounded=0;whiteSpace=wrap;html=1;fillColor=#d5e8d4;strokeColor=#82b366;" parent="EcIYvN07CErEai14c9Gb-28" vertex="1">
          <mxGeometry width="240" height="130" as="geometry" />
        </mxCell>
        <mxCell id="EcIYvN07CErEai14c9Gb-11" value="&lt;h1 style=&quot;font-size: 30px;&quot;&gt;No of users&lt;/h1&gt;&lt;div style=&quot;font-size: 30px;&quot;&gt;&lt;span style=&quot;font-size: 30px;&quot;&gt;9627148&lt;/span&gt;&lt;/div&gt;" style="text;html=1;strokeColor=none;fillColor=none;spacing=5;spacingTop=-20;whiteSpace=wrap;overflow=hidden;rounded=0;fontSize=30;" parent="EcIYvN07CErEai14c9Gb-28" vertex="1">
          <mxGeometry x="25" y="5" width="205" height="120" as="geometry" />
        </mxCell>
        <mxCell id="EcIYvN07CErEai14c9Gb-29" value="" style="endArrow=classic;html=1;rounded=0;entryX=0.425;entryY=1.078;entryDx=0;entryDy=0;entryPerimeter=0;" parent="1" target="EcIYvN07CErEai14c9Gb-11" edge="1">
          <mxGeometry width="50" height="50" relative="1" as="geometry">
            <mxPoint x="2170" y="750" as="sourcePoint" />
            <mxPoint x="2220" y="700" as="targetPoint" />
          </mxGeometry>
        </mxCell>
        <mxCell id="EcIYvN07CErEai14c9Gb-30" value="" style="endArrow=classic;html=1;rounded=0;entryX=0.997;entryY=0.53;entryDx=0;entryDy=0;entryPerimeter=0;" parent="1" target="EcIYvN07CErEai14c9Gb-14" edge="1">
          <mxGeometry width="50" height="50" relative="1" as="geometry">
            <mxPoint x="2050" y="1040" as="sourcePoint" />
            <mxPoint x="2100" y="990" as="targetPoint" />
          </mxGeometry>
        </mxCell>
        <mxCell id="EcIYvN07CErEai14c9Gb-32" value="" style="rounded=0;whiteSpace=wrap;html=1;fillColor=#d5e8d4;strokeColor=#82b366;" parent="1" vertex="1">
          <mxGeometry x="1190" y="1140" width="240" height="130" as="geometry" />
        </mxCell>
        <mxCell id="EcIYvN07CErEai14c9Gb-31" value="&lt;h1 style=&quot;font-size: 30px;&quot;&gt;No of courses&lt;/h1&gt;&lt;div&gt;6406&lt;/div&gt;" style="text;html=1;strokeColor=none;fillColor=none;spacing=5;spacingTop=-20;whiteSpace=wrap;overflow=hidden;rounded=0;fontSize=30;" parent="1" vertex="1">
          <mxGeometry x="1190" y="1150" width="255" height="120" as="geometry" />
        </mxCell>
        <mxCell id="EcIYvN07CErEai14c9Gb-33" value="" style="endArrow=classic;html=1;rounded=0;entryX=0;entryY=0.25;entryDx=0;entryDy=0;" parent="1" target="EcIYvN07CErEai14c9Gb-31" edge="1">
          <mxGeometry width="50" height="50" relative="1" as="geometry">
            <mxPoint x="1080" y="1180" as="sourcePoint" />
            <mxPoint x="1130" y="1130" as="targetPoint" />
          </mxGeometry>
        </mxCell>
      </root>
    </mxGraphModel>
  </diagram>
</mxfile>
